<?xml version="1.0" encoding="UTF-8" standalone="no"?>
<!-- Created with Inkscape (http://www.inkscape.org/) -->

<svg
   xmlns:dc="http://purl.org/dc/elements/1.1/"
   xmlns:cc="http://creativecommons.org/ns#"
   xmlns:rdf="http://www.w3.org/1999/02/22-rdf-syntax-ns#"
   xmlns:svg="http://www.w3.org/2000/svg"
   xmlns="http://www.w3.org/2000/svg"
   version="1.1"
   width="500"
   height="500"
   id="svg2"
   xml:space="preserve"><metadata
     id="metadata8"><rdf:RDF><cc:Work
         rdf:about=""><dc:format>image/svg+xml</dc:format><dc:type
           rdf:resource="http://purl.org/dc/dcmitype/StillImage" /><dc:title></dc:title></cc:Work></rdf:RDF></metadata><defs
     id="defs6"><clipPath
       id="clipPath16"><path
         d="M 0,494 658,494 658,0 0,0 0,494 z"
         id="path18" /></clipPath><clipPath
       id="clipPath24"><path
         d="M 0,494 658,494 658,0 0,0 0,494 z"
         id="path26" /></clipPath><radialGradient
       cx="0"
       cy="0"
       r="1"
       fx="0"
       fy="0"
       id="radialGradient32"
       gradientUnits="userSpaceOnUse"
       gradientTransform="matrix(0,-290.90378,290.90378,0,329,247)"
       spreadMethod="pad"><stop
         id="stop34"
         style="stop-color:#ffd840;stop-opacity:1"
         offset="0" /><stop
         id="stop36"
         style="stop-color:#f9a11b;stop-opacity:1"
         offset="1" /></radialGradient><clipPath
       id="clipPath56"><path
         d="M 0,494 658,494 658,0 0,0 0,494 z"
         id="path58" /></clipPath></defs><g
     transform="matrix(1.25,0,0,-1.25,0,500)"
     id="g10"><g
       transform="matrix(0.61825769,0,0,0.81779662,-2.0932209,-2.09322)"
       id="g12"><g
         clip-path="url(#clipPath16)"
         id="g14"><g
           id="g20"><g
             id="g22" /><g
             id="g38"><g
               clip-path="url(#clipPath24)"
               id="g40"
               style="opacity:0.83999598"><g
                 id="g42"><g
                   id="g44"><g
                     id="g46"><g
                       id="g48"><path
                         d="M 658,494 0,494 0,0 l 658,0 0,494 z"
                         id="path50"
                         style="fill:url(#radialGradient32);stroke:none" /></g></g></g></g></g></g></g></g></g><g
       transform="matrix(0.85954382,0,0,0.89607296,-75.851346,-25.060543)"
       id="g52"><g
         clip-path="url(#clipPath56)"
         id="g54"><g
           transform="translate(329.5771,49.9063)"
           id="g60"><path
             d="m 0,0 c 2.838,55.156 33.23,144.74 77.279,201.12 23.999,30.721 35.041,60.659 35.041,78.825 0,63.094 -50.547,114.241 -112.896,114.241 l -0.004,0 c -62.35,0 -112.897,-51.147 -112.897,-114.241 0,-18.166 11.043,-48.104 35.043,-78.825 C -34.386,144.74 -3.994,55.156 -1.156,0 L 0,0 z"
             id="path62"
             style="fill:#f2756a;fill-opacity:1;fill-rule:nonzero;stroke:none" /></g><g
           transform="translate(329.001,439.7734)"
           id="g64"><path
             d="m 0,0 c -59.871,0 -108.58,-49.312 -108.58,-109.922 0,-14.984 8.939,-43.924 34.125,-76.166 37.653,-48.193 64.73,-119.074 74.452,-172.92 9.726,53.846 36.802,124.727 74.456,172.92 25.186,32.242 34.123,61.182 34.123,76.166 C 108.576,-49.312 59.87,0 0,0 m 4.68,-394.186 -9.363,0 -0.211,4.097 c -2.734,53.11 -32.045,141.95 -76.367,198.684 -26.511,33.933 -35.958,64.341 -35.958,81.483 0,65.375 52.581,118.561 117.216,118.561 64.634,0 117.22,-53.186 117.22,-118.561 0,-17.142 -9.448,-47.55 -35.957,-81.483 C 36.936,-248.139 7.625,-336.979 4.891,-390.089 l -0.211,-4.097 z"
             id="path66"
             style="fill:#000000;fill-opacity:1;fill-rule:nonzero;stroke:none" /></g><g
           transform="translate(376.3008,334.0684)"
           id="g68"><path
             d="m 0,0 c 0,-26.443 -21.437,-47.88 -47.88,-47.88 -26.442,0 -47.879,21.437 -47.879,47.88 0,26.444 21.437,47.88 47.879,47.88 C -21.437,47.88 0,26.444 0,0"
             id="path70"
             style="fill:#000000;fill-opacity:1;fill-rule:nonzero;stroke:none" /></g></g></g></g></svg>