<?xml version="1.0" encoding="UTF-8"?> <svg xmlns="http://www.w3.org/2000/svg" viewBox="0 0 223.44 240"><defs><style>.cls-1,.cls-5{fill:#fff;}.cls-2{fill:none;}.cls-2,.cls-5{stroke:#221f1f;stroke-width:2.81px;}.cls-3{fill:#820024;stroke:#811429;}.cls-3,.cls-4{stroke-miterlimit:10;stroke-width:0.5px;}.cls-4{fill:#0f2c52;stroke:#0f2c52;}.cls-5{stroke-miterlimit:3.86;}</style></defs><title>Color Shield</title><g id="Layer_1" data-name="Layer 1"><path class="cls-1" d="M34.19,38.41S107.73,57,184.34,37.64c0,0,27,99.48-73.5,174.36,0,0-94-55.19-76.65-173.59"></path><path class="cls-2" d="M34.19,38.41S107.73,57,184.34,37.64c0,0,27,99.48-73.5,174.36C110.84,212,16.81,156.81,34.19,38.41Z"></path><path class="cls-3" d="M112.71,119.24,111,52.77s-42.5-.17-72.18-6.55c0,0-5.1,38,7.35,73.08l66.46-.06h-1.93l.11,85.08c51.06-38,62.43-85.36,62.43-85.36Z"></path><path class="cls-4" d="M179.49,45.9c-31.9,8-68.76,6.7-68.76,6.7l-.16,66.65-64-.11s13.73,49.77,64.3,85.35l.48-84.48,61.91-.72C185.18,78.12,179.49,45.9,179.49,45.9Z"></path><path class="cls-5" d="M67.09,88s9.35-2.59,12.77,1c0,0,.25.37.27-.93l0-23S76,59.52,67.68,63.79a1.06,1.06,0,0,1-1.14,0c-8.36-4.27-12.85,1-12.85,1l0,23c0,1.3.29.93.29.93C57.36,85.27,67.09,88,67.09,88Z"></path><line class="cls-2" x1="67.11" y1="63.32" x2="67.11" y2="88.15"></line><path class="cls-2" d="M39.47,46.24S104.81,62,179,46.24c0,0,19.27,92.62-68.12,157.74C110.85,204,28.55,154.11,39.47,46.24Z"></path><path class="cls-5" d="M117.12,125.56v23.77h12.13v12h-12v12H104.84V161.5H93.11c0-4,0-8.1,0-12.11,3.88,0,7.85-.09,11.73-.09l0-23.74-24.2-.09v12.2H68.44v-12.2H56.56c0-4,0-8.27,0-12.28H68.31V101.46H80.62c0,3.87,0,11.73,0,11.73h24.2V89.46c-4,0-8.11,0-12.13,0v-12h12v-12h12.37V77.25h11.74c0,4,0,8.15,0,12.17l-11.73,0,0,23.74,23.6-.07V101.39H153l0,11.8h11.48c0,4,0,8.33,0,12.34H152.86v12l-12.15,0c0-3.87,0-8.25,0-12.12Z"></path></g></svg> 