<?xml version="1.0" encoding="UTF-8"?> <svg xmlns="http://www.w3.org/2000/svg" id="Layer_1" data-name="Layer 1" viewBox="0 0 600 100"><defs><style>.cls-1{fill:#002856;}.cls-2{fill:#fff;}.cls-3{fill:#7a303f;}</style></defs><title>GCTS-Logo-2-color-Light-BG</title><path class="cls-1" d="M588.73,46.08c-1.39,0-2.09-.62-2.09-1.88V18.58a2,2,0,0,1,.67-1.67,4.68,4.68,0,0,1,2.44-.68l1.55-.15c.3,0,.44-.2.44-.44V14.06l-.07-.14-7.79.14q-2.29,0-8.22-.14l-.07.14v1.58c0,.24.17.39.5.44l1.49.15a5.36,5.36,0,0,1,2.48.64,1.94,1.94,0,0,1,.7,1.71V44a2.26,2.26,0,0,1-.63,1.86,4.74,4.74,0,0,1-2.41.64l-1.7.15c-.29,0-.43.19-.43.44v1.58l.07.15c1.72,0,3.15,0,4.29,0s1.91,0,2.32-.08l.83,0h15.32A53.83,53.83,0,0,1,600,39.47l-1.87-.22a13.9,13.9,0,0,1-2.61,5.1,6,6,0,0,1-4.7,1.73Zm-29.48,0c-1.39,0-2.09-.62-2.09-1.88V18.58a2,2,0,0,1,.66-1.67,4.72,4.72,0,0,1,2.45-.68l1.56-.15c.28,0,.43-.2.43-.44V14.06l-.07-.14-7.79.14q-2.31,0-8.22-.14l-.08.14v1.58c0,.24.17.39.51.44l1.49.15a5.4,5.4,0,0,1,2.48.64,2,2,0,0,1,.7,1.71V44a2.26,2.26,0,0,1-.63,1.86,4.74,4.74,0,0,1-2.41.64l-1.7.15c-.29,0-.44.19-.44.44v1.58l.08.15c1.72,0,3.14,0,4.29,0s1.91,0,2.32-.08l.83,0h15.32a52.85,52.85,0,0,1,1.58-9.18l-1.88-.22a13.9,13.9,0,0,1-2.6,5.1,6,6,0,0,1-4.7,1.73ZM537.14,48.8l.15-.15,1.5-8.67-1.87-.22q-1.45,6.32-6.83,6.32H523a1.8,1.8,0,0,1-1.57-.85,3.38,3.38,0,0,1-.59-2V31.72h5.6a2.68,2.68,0,0,1,2.92,2.33l.37,1.64c0,.24.2.36.55.36h1.24l.19-.11-.48-5.19c0-.42.18-2.28.48-5.59,0-.13-.09-.19-.19-.19h-1.24q-.48,0-.48.36l-.44,1.57a3.26,3.26,0,0,1-.82,1.84,3.11,3.11,0,0,1-2.1.56h-5.6V18.42c0-1.19.72-1.79,2.16-1.79h6a7.2,7.2,0,0,1,3,.59A4.89,4.89,0,0,1,534.05,19a13.94,13.94,0,0,1,1.19,2.1,17.49,17.49,0,0,1,.76,2.29l1.88-.29a60.18,60.18,0,0,1-1.1-9l-.15-.14-7.58.14H518q-2.24,0-8.09-.14l-.07.14v1.72c0,.16.14.25.43.3l1.7.15a5.42,5.42,0,0,1,2.33.57,1.8,1.8,0,0,1,.64,1.63V43.25a2.91,2.91,0,0,1-3,3.23l-1.7.15c-.29,0-.43.12-.43.36v1.66l.07.15,7.4-.15h13.14q2.24,0,6.66.15m-68.34.27a3.29,3.29,0,0,0,.84-1,15.09,15.09,0,0,0,.61-1.52l6.36-17.85q.52-1.35.75-1.35c.23,0,.54.54.95,1.62l6.2,17.61c.69,2,1.84,3,3.45,3,1.35,0,2.4-1,3.16-3l9.8-27A8.36,8.36,0,0,1,501.6,18,4.28,4.28,0,0,1,503,16.83a5.56,5.56,0,0,1,2.57-.75c.44,0,.66-.2.66-.44V14l-.15-.07-5,.14q-2.37,0-6.81-.14l-.08.14v1.65c0,.2.15.32.44.37l1.58.15c1.33.12,2,.62,2,1.5a2.73,2.73,0,0,1-.26.91l-8.87,24.13L480.43,19.4a5.82,5.82,0,0,1-.33-1.7c0-.88.53-1.37,1.58-1.47l1.72-.15c.34,0,.52-.17.52-.37V14.06l-.15-.14-8,.14c-1.61,0-3.5-.05-5.65-.14l-.15.14v1.65c0,.2.26.32.7.37,2.15.27,3.47,1.06,4,2.35l1.11,2.92a5.19,5.19,0,0,1,.18,1.59,7.3,7.3,0,0,1-.45,1.95l-6.3,17.36-8.79-23.83a3,3,0,0,1-.3-1.1c0-.6.53-1,1.58-1.09l1.29-.15c.34,0,.51-.2.51-.44V14.06l-.07-.14-8,.14c-1.45,0-3.2-.05-5.26-.14l-.18.14v1.65c0,.15.28.27.77.37l.67.15a4.28,4.28,0,0,1,3.22,2.71l10.18,27.69c.79,2,1.64,2.94,2.54,2.94a2.24,2.24,0,0,0,1.5-.5M445.43,16.23l1.5-.15c.34,0,.51-.17.51-.37V14l-.22-.07-6.68.14c-1.37,0-3.75-.05-7.16-.14l-.15.14v1.65c0,.2.29.32.78.37l1.57.15A3.68,3.68,0,0,1,438,17.31a3.11,3.11,0,0,1,.86,2.15V37.31c0,1.3-.18,1.94-.54,1.94s-1.06-.59-2.12-1.79L419,14.06l-10.13-.14-.16.22v1.5c0,.24.23.39.66.44A5.27,5.27,0,0,1,414,18.8V43.32c0,1.91-1.08,3-3.23,3.16l-1.51.15c-.49,0-.73.19-.73.44v1.58l.21.15,7-.15q2.36,0,6.94.15l.08-.15V47.07c0-.25-.21-.39-.56-.44l-1.5-.15c-2.25-.19-3.38-1.25-3.38-3.16V25.17q0-2.64.78-2.64c.37,0,1.05.6,2,1.8L437.77,47.9a4.32,4.32,0,0,0,2.92,1.65c1,0,1.5-.7,1.5-2v-28q0-2.94,3.24-3.23m-46.49,2a18.44,18.44,0,0,0-13-4.94,18,18,0,0,0-18.5,18.64,16.68,16.68,0,0,0,5.1,12.53,17.67,17.67,0,0,0,12.78,4.92q8.88,0,13.91-5.33a18.3,18.3,0,0,0,5-13.08,16.52,16.52,0,0,0-5.36-12.74m-4.83,2q3.66,4.47,3.66,11.81,0,6.89-3.09,10.92a9.78,9.78,0,0,1-8.18,4,10.89,10.89,0,0,1-9-4.49A18.08,18.08,0,0,1,374,31q0-7.26,3.34-11.29a10,10,0,0,1,7.94-4,11,11,0,0,1,8.82,4.48M356.68,47.72a18.65,18.65,0,0,0,5.73-5.28l-1.51-1.21a17.64,17.64,0,0,1-5.06,4.33,13.17,13.17,0,0,1-6.1,1.25,10.2,10.2,0,0,1-7.05-2.48,12.27,12.27,0,0,1-3.76-5.82A26.66,26.66,0,0,1,338,31q0-15.57,11.49-15.56,9.26,0,10.75,8.85l1.95-.23a77.32,77.32,0,0,1-.88-9.6,47,47,0,0,1-5-.59,48.08,48.08,0,0,0-7.28-.6,16.77,16.77,0,0,0-12.56,5.19,18.28,18.28,0,0,0-5,13.28,17.64,17.64,0,0,0,4.88,12.32q4.89,5.31,13.08,5.3a14.89,14.89,0,0,0,7.3-1.66m-105-31.49,1.51-.15c.34,0,.51-.17.51-.37V14l-.22-.07-6.68.14q-2.06,0-7.16-.14l-.15.14v1.65c0,.2.28.32.77.37l1.58.15a3.68,3.68,0,0,1,2.45,1.08,3.11,3.11,0,0,1,.86,2.15V37.31c0,1.3-.18,1.94-.54,1.94s-1.06-.59-2.12-1.79l-17.21-23.4-10.13-.14-.14.22v1.5c0,.24.21.39.65.44a5.24,5.24,0,0,1,4.59,2.72V43.32c0,1.91-1.07,3-3.23,3.16l-1.5.15c-.49,0-.74.19-.74.44v1.58l.23.15,7-.15q2.35,0,6.94.15l.07-.15V47.07c0-.25-.21-.39-.55-.44l-1.5-.15c-2.26-.19-3.38-1.25-3.38-3.16V25.17q0-2.64.78-2.64c.37,0,1,.6,2,1.8L244,47.9a4.32,4.32,0,0,0,2.92,1.65c1,0,1.5-.7,1.5-2v-28q0-2.94,3.23-3.23m-49.28,2a18.44,18.44,0,0,0-13-4.94A18,18,0,0,0,170.9,31.93,16.68,16.68,0,0,0,176,44.46a17.67,17.67,0,0,0,12.78,4.92q8.88,0,13.91-5.33a18.3,18.3,0,0,0,5-13.08,16.48,16.48,0,0,0-5.36-12.74m-4.82,2q3.65,4.47,3.65,11.81,0,6.89-3.08,10.92a9.81,9.81,0,0,1-8.19,4,10.91,10.91,0,0,1-9-4.49A18.14,18.14,0,0,1,177.44,31q0-7.26,3.34-11.29a10,10,0,0,1,7.93-4,11.07,11.07,0,0,1,8.83,4.48m-60.9-1.76c0-1.56,1.6-2.35,4.8-2.35a17,17,0,0,1,6.28,1.07,11.44,11.44,0,0,1,4.2,2.64,11.64,11.64,0,0,1,2.4,3.95,19.77,19.77,0,0,1,1.17,4.49,38.23,38.23,0,0,1,.28,4.78q0,7.59-3.19,10.61t-9.71,3c-2.67,0-4.37-.27-5.12-.79a3,3,0,0,1-1.11-2.59Zm-11,30.22.07.15,8-.15c.44,0,1.81,0,4.1.07s4.57.08,6.87.08a22.12,22.12,0,0,0,6.31-.87,19.22,19.22,0,0,0,5.59-2.7,12.34,12.34,0,0,0,4.2-5.3,20.08,20.08,0,0,0,1.54-8.21q0-7.89-4.8-12.85t-13.9-5c-.71,0-2.44,0-5.17.07l-4.77.07q-1.35,0-7.93-.14l-.07.14v1.65c0,.2.17.32.51.37l1.62.15a6.12,6.12,0,0,1,2.48.49c.33.24.49.81.49,1.71V43.25a3.53,3.53,0,0,1-.63,2.4,3.51,3.51,0,0,1-2.34.83l-1.7.15a.38.38,0,0,0-.43.44Zm-36.1-2.17L88,46.63c-.29,0-.44.19-.44.44v1.58l.07.15,7.83-.15q2.25,0,7.51.15l.23-.15V47.07c0-.25-.2-.39-.54-.44l-.88-.15q-3.39-.55-3.39-2.8V32.75H99q5.7,0,7.93,5.43l2.25,4.52q3.21,6.67,7.27,6.68a12.59,12.59,0,0,0,4.08-.58l-.48-1.58a3.84,3.84,0,0,1-3-1.16,14.42,14.42,0,0,1-2.3-3.86l-2.57-5.66a9.88,9.88,0,0,0-2.23-3.4,5,5,0,0,0-3.21-1.65v-.08a9.48,9.48,0,0,0,5.87-2.75,8.11,8.11,0,0,0,2.42-6,7.28,7.28,0,0,0-3.38-6.48c-2.26-1.48-5.27-2.22-9-2.22-.54,0-1.62,0-3.25.07s-2.94.07-4,.07q-3,0-7.65-.14l-.15.14v1.58c0,.24.2.39.59.44a11.69,11.69,0,0,1,3.35.72,2,2,0,0,1,1.13,2V44c0,1.45-1,2.28-3.16,2.5m17.83-17.66q-2,1.75-6.45,1.76H98.37V18.43a1.92,1.92,0,0,1,.94-1.78,7.79,7.79,0,0,1,3.64-.57c2.36,0,4,.52,5,1.54s1.46,2.7,1.46,5c0,3-.67,5-2,6.2M75.16,18.23a18.44,18.44,0,0,0-13-4.94A18,18,0,0,0,43.7,31.93a16.68,16.68,0,0,0,5.1,12.53,17.67,17.67,0,0,0,12.78,4.92q8.88,0,13.91-5.33a18.34,18.34,0,0,0,5-13.08,16.52,16.52,0,0,0-5.36-12.74m-4.83,2Q74,24.66,74,32q0,6.89-3.09,10.92a9.78,9.78,0,0,1-8.18,4,10.91,10.91,0,0,1-9-4.49A18.08,18.08,0,0,1,50.23,31q0-7.26,3.35-11.29a10,10,0,0,1,7.92-4,11,11,0,0,1,8.83,4.48M27,44.34a9.49,9.49,0,0,1-7,2.88,11.18,11.18,0,0,1-7.6-2.83A15.86,15.86,0,0,1,7.78,38a19.56,19.56,0,0,1-1.32-6.9q0-7,3.17-11.35a10.48,10.48,0,0,1,9-4.32q10.32,0,12,8.87l2-.22a59.4,59.4,0,0,1-1-9.63c-.62,0-2.4-.2-5.36-.59a54.55,54.55,0,0,0-6.76-.6q-8.55,0-14,5T0,32.09a16.22,16.22,0,0,0,5.31,12.3,18.59,18.59,0,0,0,13.27,5q7.46,0,15.31-5.4a2.92,2.92,0,0,1-1-1.73V36.58a2.23,2.23,0,0,1,.57-1.75,4.15,4.15,0,0,1,2-.72c.31-.07.46-.23.46-.47V32l-.14-.08L30.14,32q-2.24,0-8.26-.08v1.7a.45.45,0,0,0,.44.47l1.48.15a5.47,5.47,0,0,1,2.44.62,1.86,1.86,0,0,1,.75,1.7Z"></path><path class="cls-1" d="M487.09,94.18l-.83.08c-.2,0-.3.12-.3.26v.9l.1.08,4.38-.08c.85,0,2.33,0,4.43.08l.08-.08v-.9c0-.14-.1-.23-.28-.26l-.87-.08a2.6,2.6,0,0,1-1.37-.39,1.19,1.19,0,0,1-.39-1v-6l4.55-8.33a4.28,4.28,0,0,1,.85-1.23,2.66,2.66,0,0,1,1.31-.39l.7-.08c.19,0,.28-.1.28-.21v-1l0-.09c-.83.06-1.76.09-2.81.09l-1.58,0-1.61,0-.08,0v1q0,.21.18.21l.95.08c.54.06.81.16.81.32a3,3,0,0,1-.36.86l-3.84,7.12h-.1L487.09,78a1.88,1.88,0,0,1-.35-.76c0-.24.25-.37.75-.42l.91-.08c.15,0,.22-.07.22-.21v-1l-.06,0c-.64.06-2,.09-4.16.09l-1.74,0-1.65,0-.08.09v1c0,.11.11.18.32.21a3,3,0,0,1,2.41,1.3L488.87,87v5.81c0,.8-.6,1.26-1.78,1.39m-25.15,0-.87.08a.25.25,0,0,0-.24.26v.9l0,.08,4.3-.08c.83,0,2.2,0,4.13.08l.13-.08v-.9c0-.14-.11-.23-.3-.26l-.48-.08c-1.24-.21-1.86-.75-1.86-1.6V86.31h.34a4.4,4.4,0,0,1,4.36,3.11L472.73,92q1.77,3.83,4,3.83A6.42,6.42,0,0,0,479,95.5l-.27-.9a2.07,2.07,0,0,1-1.62-.66,8.15,8.15,0,0,1-1.26-2.22l-1.42-3.24a5.71,5.71,0,0,0-1.23-1.94,2.75,2.75,0,0,0-1.76-1v0A5.23,5.23,0,0,0,474.65,84,4.8,4.8,0,0,0,476,80.5a4.21,4.21,0,0,0-1.86-3.71,8.67,8.67,0,0,0-5-1.28l-1.79,0c-.89,0-1.62,0-2.17,0-1.1,0-2.51,0-4.21-.09l-.08.09v.9c0,.14.11.23.32.26a6,6,0,0,1,1.84.41,1.12,1.12,0,0,1,.62,1.15V92.75c0,.83-.57,1.3-1.73,1.43m9.81-10.12a5.24,5.24,0,0,1-3.56,1h-1.4v-7a1.11,1.11,0,0,1,.51-1,4.25,4.25,0,0,1,2-.32,3.6,3.6,0,0,1,2.76.88,4.16,4.16,0,0,1,.81,2.86,4.67,4.67,0,0,1-1.12,3.56M444.7,86.65c-.55,0-.84-.2-.84-.63l3.23-7.88h.1l3.19,8.5Zm-.89,1.24h7l1.88,5a2.66,2.66,0,0,1,.07.48c0,.41-.55.68-1.65.82l-.75.08c-.19,0-.28.09-.28.26v.9l.08.08,4.64-.08c.82,0,2,0,3.44.08l.11-.08v-.9c0-.14-.12-.23-.34-.26a2.77,2.77,0,0,1-1.56-.48,4.08,4.08,0,0,1-1-1.63l-6-16a1.62,1.62,0,0,0-1.65-1.1q-.85,0-1.35,1.14l-7.25,16.2a3.52,3.52,0,0,1-.78,1.13,2.24,2.24,0,0,1-.83.52,5.47,5.47,0,0,1-1,.2c-.16,0-.24.09-.24.26v.9l.08.08,2.69-.08,4.21.08.08-.08v-.9c0-.17-.08-.26-.24-.26l-.55,0c-1.13-.08-1.69-.34-1.69-.78a2.72,2.72,0,0,1,.18-.57l1.84-4.51c.08-.33.39-.49.91-.47m-10.61-11,.83-.08c.19,0,.29-.1.29-.21v-1l-.13,0-3.67.09c-.75,0-2.07,0-3.94-.09l-.08.09v1q0,.17.42.21l.87.08a2,2,0,0,1,1.35.62,1.84,1.84,0,0,1,.47,1.24V88.92c0,.75-.1,1.12-.29,1.12s-.59-.34-1.17-1L418.68,75.6l-5.57-.09-.08.13v.86c0,.14.12.23.36.26a2.83,2.83,0,0,1,2.52,1.56V92.37a1.68,1.68,0,0,1-1.77,1.81l-.83.08c-.27,0-.41.12-.41.26v.9l.13.08,3.83-.08c.87,0,2.14,0,3.82.08l0-.08v-.9c0-.14-.11-.23-.3-.26l-.83-.08c-1.24-.11-1.86-.72-1.86-1.81V82c0-1,.16-1.52.43-1.52s.58.34,1.12,1L429,95a2.38,2.38,0,0,0,1.61,1c.55,0,.83-.41.83-1.17V78.7a1.7,1.7,0,0,1,1.77-1.86m-26.35.39a2.65,2.65,0,0,1,1.32-.39l.85-.08c.16,0,.25-.1.25-.21v-1l0-.09-4.29.09c-.84,0-2.35,0-4.52-.09l0,.09v1c0,.08.09.14.28.17l.81.08a2.9,2.9,0,0,1,1.37.37,1.14,1.14,0,0,1,.39,1V92.54c0,1-.59,1.53-1.76,1.64l-.81.08c-.19,0-.28.12-.28.26v.9l.08.08,4.36-.08c.85,0,2.31,0,4.41.08l0-.08v-.9c0-.14-.09-.23-.25-.26l-.85-.08c-1.14-.11-1.71-.66-1.71-1.64V78.19a1.13,1.13,0,0,1,.39-1m-16.14,1.69.59,13.87a1.53,1.53,0,0,1-.2,1,1.12,1.12,0,0,1-.79.39l-.86.08c-.19,0-.29.12-.29.26v.9l.08.08,4-.08c.82,0,2,0,3.59.08l.08-.08v-.9c0-.14-.12-.23-.36-.26a3.28,3.28,0,0,1-1.59-.45,1.91,1.91,0,0,1-.49-1.36l-1-13.61c0-.27,0-.48,0-.63,0-.56.13-.93.39-1.09a4.6,4.6,0,0,1,1.79-.36c.22,0,.32-.14.32-.34V75.6l-.08-.09-5.18.09-6.09,15.64L379,75.6l-5.41-.09-.08.13v1c0,.08.1.14.32.17a6.62,6.62,0,0,1,1.77.25.71.71,0,0,1,.39.73L374.4,92.22a2.48,2.48,0,0,1-.55,1.61,3.09,3.09,0,0,1-1.66.43c-.21,0-.32.12-.32.26v.9l0,.08,2.95-.08c.81,0,1.86,0,3.16.08l0-.08v-.9c0-.17-.1-.26-.29-.26a2.58,2.58,0,0,1-1.61-.45,1.91,1.91,0,0,1-.37-1.36l1.44-13.19h.09l5.88,16.33a.45.45,0,0,0,.45.36c.19,0,.32-.15.39-.41l6.59-16.62ZM367.54,95.5l.09-.08.82-5-1-.13q-.81,3.61-3.76,3.62h-3.9a1,1,0,0,1-.86-.49,2,2,0,0,1-.33-1.13V85.72h3.08a1.49,1.49,0,0,1,1.61,1.34l.2.93c0,.14.12.22.31.22h.68l.1-.07-.26-3c0-.24.1-1.3.26-3.2,0-.07-.05-.11-.1-.11h-.68q-.27,0-.27.21l-.24.9a1.9,1.9,0,0,1-.45,1.05,1.68,1.68,0,0,1-1.16.32h-3.08V78.1c0-.68.4-1,1.19-1h3.3a3.71,3.71,0,0,1,1.65.34,2.67,2.67,0,0,1,1.13,1,7.37,7.37,0,0,1,.65,1.21,10.82,10.82,0,0,1,.43,1.32l1-.17a37.17,37.17,0,0,1-.61-5.17l-.08-.09-4.17.09H357c-.82,0-2.31,0-4.45-.09l-.05.09v1c0,.08.08.14.25.17l.93.08a2.92,2.92,0,0,1,1.28.33,1,1,0,0,1,.35.93V92.33a1.64,1.64,0,0,1-1.63,1.85l-.93.08c-.17,0-.25.07-.25.22v.94l.05.08,4.06-.08h7.23c.83,0,2.05,0,3.67.08m-22-19.88a11.48,11.48,0,0,0-3.45-.46,7,7,0,0,0-4.25,1.37A4.53,4.53,0,0,0,336,80.41a4.44,4.44,0,0,0,.5,2.08,5,5,0,0,0,1.4,1.64,13.34,13.34,0,0,0,1.52,1.05l1.5.86a13.44,13.44,0,0,1,3.42,2.11,3.5,3.5,0,0,1,1,2.68c0,2.58-1.17,3.88-3.51,3.88a4.5,4.5,0,0,1-3.23-1.32,7.56,7.56,0,0,1-1.9-4.08l-1.16.08a59.44,59.44,0,0,1,.45,6.07c.14,0,.36-.07.65-.14a3.14,3.14,0,0,1,.72-.1c.05,0,.62.12,1.7.36a15.49,15.49,0,0,0,3.51.37,5.8,5.8,0,0,0,4.37-1.7,6.12,6.12,0,0,0,1.63-4.38,4.65,4.65,0,0,0-.55-2.25,5.93,5.93,0,0,0-1.58-1.8,14.83,14.83,0,0,0-1.81-1.19l-1.78-.94-1.53-.81a6.57,6.57,0,0,1-1.63-1.35,2.88,2.88,0,0,1-.87-1.91,3,3,0,0,1,3.31-3.22,3.83,3.83,0,0,1,2.75,1.21,6.4,6.4,0,0,1,1.71,3.24l1.11-.08c-.09-1.63-.24-3.19-.46-4.68a9.92,9.92,0,0,1-1.72-.47M312.75,94c-.77,0-1.15-.36-1.15-1.08V78.19a1.15,1.15,0,0,1,.37-1,2.56,2.56,0,0,1,1.34-.39l.86-.08a.25.25,0,0,0,.24-.26v-.9l0-.09-4.29.09c-.84,0-2.35,0-4.52-.09l0,.09v.9c0,.14.09.23.28.26l.81.08a2.82,2.82,0,0,1,1.36.37,1.14,1.14,0,0,1,.39,1V92.75a1.32,1.32,0,0,1-.34,1.06,2.52,2.52,0,0,1-1.33.37l-.93.08a.25.25,0,0,0-.24.26v.9l0,.08h2.36c.62,0,1.05,0,1.27,0l.47,0h10.16a31.27,31.27,0,0,1,.87-5.26l-1-.13A8.23,8.23,0,0,1,318.23,93a3.23,3.23,0,0,1-2.59,1Zm-23.4-7.3c-.56,0-.83-.2-.83-.63l3.22-7.88h.1l3.19,8.5Zm-.89,1.24h7l1.87,5a3,3,0,0,1,.08.48c0,.41-.55.68-1.66.82l-.75.08c-.18,0-.28.09-.28.26v.9l.08.08,4.64-.08c.82,0,2,0,3.44.08l.12-.08v-.9c0-.14-.13-.23-.35-.26a2.77,2.77,0,0,1-1.56-.48,4.08,4.08,0,0,1-1-1.63l-6-16a1.62,1.62,0,0,0-1.65-1.1q-.84,0-1.35,1.14l-7.25,16.2a3.52,3.52,0,0,1-.78,1.13,2.29,2.29,0,0,1-.82.52,5.6,5.6,0,0,1-1.05.2c-.16,0-.24.09-.24.26v.9l.08.08,2.69-.08,4.21.08.08-.08v-.9c0-.17-.08-.26-.24-.26l-.55,0c-1.13-.08-1.69-.34-1.69-.78a2.72,2.72,0,0,1,.18-.57l1.85-4.51c.08-.33.38-.49.9-.47m-13.53,7a10.37,10.37,0,0,0,3.15-3l-.83-.69a9.86,9.86,0,0,1-2.79,2.48,7,7,0,0,1-3.35.72A5.48,5.48,0,0,1,267.23,93a7.14,7.14,0,0,1-2.07-3.34,15.75,15.75,0,0,1-.53-4.29q0-8.91,6.32-8.92c3.39,0,5.37,1.68,5.92,5.07l1.07-.12a46.26,46.26,0,0,1-.49-5.51,23.53,23.53,0,0,1-2.74-.34,25.21,25.21,0,0,0-4-.34,9,9,0,0,0-6.91,3A10.7,10.7,0,0,0,261,85.74a10.37,10.37,0,0,0,2.69,7.07,9.13,9.13,0,0,0,7.19,3,8,8,0,0,0,4-1M254.77,77.23a2.65,2.65,0,0,1,1.32-.39l.86-.08q.24,0,.24-.21v-1l0-.09-4.29.09c-.84,0-2.35,0-4.52-.09l0,.09v1c0,.08.09.14.28.17l.82.08a2.89,2.89,0,0,1,1.36.37,1.14,1.14,0,0,1,.39,1V92.54c0,1-.59,1.53-1.75,1.64l-.82.08c-.19,0-.28.12-.28.26v.9l.08.08,4.36-.08c.85,0,2.32,0,4.41.08l0-.08v-.9a.25.25,0,0,0-.24-.26l-.86-.08c-1.14-.11-1.71-.66-1.71-1.64V78.19a1.13,1.13,0,0,1,.39-1M239.77,93a5.12,5.12,0,0,1-3.88,1.65A6,6,0,0,1,231.71,93a9,9,0,0,1-2.5-3.64,11.55,11.55,0,0,1-.73-4,11.08,11.08,0,0,1,1.74-6.5,5.67,5.67,0,0,1,4.95-2.48c3.78,0,6,1.68,6.62,5.08l1.09-.12a35.26,35.26,0,0,1-.54-5.52c-.34,0-1.33-.11-3-.34a28.56,28.56,0,0,0-3.72-.34A10.72,10.72,0,0,0,228,78a10.37,10.37,0,0,0-3,7.89,9.52,9.52,0,0,0,2.92,7,10,10,0,0,0,7.31,2.86,14.48,14.48,0,0,0,8.42-3.1,1.66,1.66,0,0,1-.57-1V88.5a1.3,1.3,0,0,1,.32-1,2.17,2.17,0,0,1,1.13-.41c.17,0,.25-.13.25-.27v-.93l-.08,0-3.11,0c-.82,0-2.34,0-4.55,0v1a.26.26,0,0,0,.24.27l.82.08a3.06,3.06,0,0,1,1.34.36,1.07,1.07,0,0,1,.41,1Zm-22.4-15a10,10,0,0,0-7.13-2.82,9.77,9.77,0,0,0-7.27,3,10.58,10.58,0,0,0-2.91,7.69,9.74,9.74,0,0,0,2.8,7.18,9.54,9.54,0,0,0,7,2.82,9.84,9.84,0,0,0,7.66-3,10.79,10.79,0,0,0,2.76-7.5A9.7,9.7,0,0,0,217.37,78m-2.66,1.13a10.67,10.67,0,0,1,2,6.77,10.38,10.38,0,0,1-1.7,6.26,5.31,5.31,0,0,1-4.5,2.31,5.9,5.9,0,0,1-5-2.57,10.67,10.67,0,0,1-1.92-6.55,10.13,10.13,0,0,1,1.84-6.47,5.43,5.43,0,0,1,4.36-2.31,6,6,0,0,1,4.86,2.56M188.72,94c-.77,0-1.15-.36-1.15-1.08V78.19a1.18,1.18,0,0,1,.36-1,2.64,2.64,0,0,1,1.35-.39l.86-.08a.25.25,0,0,0,.23-.26v-.9l0-.09-4.29.09c-.84,0-2.35,0-4.52-.09l0,.09v.9c0,.14.09.23.28.26l.81.08a2.9,2.9,0,0,1,1.37.37,1.14,1.14,0,0,1,.39,1V92.75a1.32,1.32,0,0,1-.35,1.06,2.52,2.52,0,0,1-1.33.37l-.93.08a.25.25,0,0,0-.24.26v.9l0,.08h2.36c.62,0,1.05,0,1.27,0l.46,0h10.17a31.27,31.27,0,0,1,.87-5.26l-1-.13A8.07,8.07,0,0,1,194.19,93a3.2,3.2,0,0,1-2.58,1ZM174.64,78a10,10,0,0,0-7.14-2.82,9.76,9.76,0,0,0-7.26,3,10.59,10.59,0,0,0-2.92,7.69A9.75,9.75,0,0,0,160.13,93a9.52,9.52,0,0,0,7,2.82,9.84,9.84,0,0,0,7.66-3,10.8,10.8,0,0,0,2.77-7.5,9.7,9.7,0,0,0-3-7.31M172,79.11a10.67,10.67,0,0,1,2,6.77,10.38,10.38,0,0,1-1.7,6.26,5.31,5.31,0,0,1-4.5,2.31,5.9,5.9,0,0,1-4.95-2.57,10.67,10.67,0,0,1-1.92-6.55,10.13,10.13,0,0,1,1.84-6.47,5.43,5.43,0,0,1,4.36-2.31A6,6,0,0,1,172,79.11M152.37,95.5l.08-.08.83-5-1-.13q-.81,3.61-3.76,3.62h-3.9a1,1,0,0,1-.87-.49,2,2,0,0,1-.32-1.13V85.72h3.08a1.49,1.49,0,0,1,1.61,1.34l.2.93c0,.14.11.22.3.22h.69l.1-.07-.26-3c0-.24.1-1.3.26-3.2,0-.07,0-.11-.1-.11h-.69c-.17,0-.26.07-.26.21l-.24.9a1.9,1.9,0,0,1-.45,1.05,1.69,1.69,0,0,1-1.16.32H143.4V78.1c0-.68.4-1,1.19-1h3.3a3.64,3.64,0,0,1,1.64.34,2.75,2.75,0,0,1,1.14,1,7.37,7.37,0,0,1,.65,1.21,10.82,10.82,0,0,1,.43,1.32l1-.17a38.46,38.46,0,0,1-.6-5.17l-.08-.09-4.17.09h-6.06c-.82,0-2.31,0-4.46-.09l0,.09v1c0,.08.08.14.24.17l.94.08a2.92,2.92,0,0,1,1.28.33,1,1,0,0,1,.35.93V92.33a1.65,1.65,0,0,1-1.63,1.85l-.94.08c-.16,0-.24.07-.24.22v.94l0,.08,4.07-.08h7.24c.81,0,2,0,3.66.08m-26.52-1.32-.83.08c-.18,0-.26.12-.26.26v.9l.06.08,4.3-.08c.82,0,2.32,0,4.5.08l.08-.08v-.9c0-.14-.11-.23-.3-.26l-.81-.08a2.59,2.59,0,0,1-1.42-.39,1.22,1.22,0,0,1-.38-1V78.1a1,1,0,0,1,.39-.89,3.62,3.62,0,0,1,1.41-.37l.81-.08c.17,0,.26-.12.26-.26v-.9l0-.09-4.46.09c-.85,0-2.29,0-4.34-.09l-.11.09v.9c0,.14.12.23.31.26l.83.08a3.48,3.48,0,0,1,1.38.33,1,1,0,0,1,.39.93v6.5H118V78.1a1,1,0,0,1,.39-.91,2.86,2.86,0,0,1,1.32-.35l.85-.08c.17,0,.25-.12.25-.26v-1l-4.42.09q-1.27,0-4.38-.09l-.08.09v.9c0,.14.09.23.28.26l.81.08a3.82,3.82,0,0,1,1.39.35,1,1,0,0,1,.37.91V92.79a1.26,1.26,0,0,1-.37,1,2.43,2.43,0,0,1-1.39.41l-.81.08c-.19,0-.28.12-.28.26v.9l.08.08,4.38-.08c.82,0,2.29,0,4.42.08v-1c0-.14-.08-.23-.25-.26l-.85-.08a2.4,2.4,0,0,1-1.32-.39,1.19,1.19,0,0,1-.39-1V85.93h9.61v6.86c0,.8-.59,1.26-1.77,1.39M106.22,77.86A10.18,10.18,0,0,1,107.44,81l1.11-.13a44.32,44.32,0,0,1-.32-5.91h-1c-.15.41-.53.61-1.13.61H92.77c-.6,0-1-.2-1.11-.61h-1a42,42,0,0,1-.34,5.91L91.4,81a10.87,10.87,0,0,1,1.24-3.19,2.3,2.3,0,0,1,2-.77h1.86a1.89,1.89,0,0,1,1.22.3,1.26,1.26,0,0,1,.36,1V92.79c0,.82-.59,1.28-1.76,1.39l-.81.08a.25.25,0,0,0-.24.26v1l4.36-.08c.82,0,2.32,0,4.48.08l0-.08v-.9c0-.14-.1-.23-.28-.26l-.82-.08a2.5,2.5,0,0,1-1.36-.39,1.19,1.19,0,0,1-.39-1V78.44a1.41,1.41,0,0,1,.33-1,1.74,1.74,0,0,1,1.2-.32h1.51a2.27,2.27,0,0,1,1.92.79"></path><path class="cls-2" d="M267,4.94s25.47,6.44,52-.27c0,0,9.35,34.45-25.45,60.38,0,0-32.56-19.11-26.55-60.11"></path><path class="cls-1" d="M293.6,65.66l-.29-.17a60.67,60.67,0,0,1-15.68-14.82,59.59,59.59,0,0,1-9.49-18.9,62.93,62.93,0,0,1-1.62-26.91l.08-.55.55.13a106,106,0,0,0,16,2.38,112.67,112.67,0,0,0,35.75-2.64l.49-.13.13.49a53.4,53.4,0,0,1,.34,20.68,58.4,58.4,0,0,1-7.18,19.71,69.51,69.51,0,0,1-18.8,20.53ZM267.45,5.56a61.7,61.7,0,0,0,1.67,25.92,58.32,58.32,0,0,0,9.33,18.58,60.09,60.09,0,0,0,15.09,14.37,68.42,68.42,0,0,0,18.23-20,57.18,57.18,0,0,0,7.06-19.35,53.53,53.53,0,0,0-.19-19.81A114,114,0,0,1,283,7.83,113.45,113.45,0,0,1,267.45,5.56Z"></path><path class="cls-1" d="M293.58,62.45l.17-29.52-22.43,0a59.3,59.3,0,0,0,22.26,29.56"></path><path class="cls-3" d="M293.57,62.39l0-29.46,21.65-.1s-3.93,16.41-21.61,29.56"></path><path class="cls-3" d="M293.63,9.91s-14.72-.06-25-2.27c0,0-1.77,13.15,2.54,25.31l23,0Z"></path><path class="cls-1" d="M293.53,9.85s12.76.44,23.81-2.32c0,0,2,11.16-2.15,25.42l-21.72.25Z"></path><path class="cls-2" d="M278.42,22.1s3.23-.89,4.42.33c0,0,.09.13.09-.32v-8s-1.42-1.88-4.31-.4a.38.38,0,0,1-.4,0c-2.89-1.48-4.44.36-4.44.36v8c0,.45.1.33.1.33,1.18-1.23,4.55-.29,4.55-.29"></path><rect class="cls-3" x="278.04" y="13.56" width="0.77" height="8.6"></rect><path class="cls-2" d="M295.74,35.11v8.24h4.2v4.16h-4.17v4.17h-4.28V47.56h-4.06c0-1.39,0-2.81,0-4.19l4.06,0V35.11l-8.38,0v4.23h-4.23V35.08h-4.11c0-1.38,0-2.86,0-4.25h4.06V26.77h4.26c0,1.34,0,4.06,0,4.06h8.38V22.62l-4.2,0V18.43h4.17V14.26h4.28v4.13h4.07c0,1.39,0,2.82,0,4.21h-4.06v8.22l8.18,0V26.75h4.27v4.08h4V35.1h-4v4.18h-4.21c0-1.34,0-2.86,0-4.2Z"></path></svg> 